<svg width="45" height="45" viewBox="0 0 45 45" fill="none" xmlns="http://www.w3.org/2000/svg">
<g clip-path="url(#clip0_1_1193)">
<path d="M44.2215 7.01238C43.5796 6.23394 42.6282 5.78781 41.6115 5.78781H15.5013C14.9665 5.78781 14.5325 6.22181 14.5325 6.75662C14.5325 7.29144 14.9665 7.72544 15.5013 7.72544H41.6109C42.0532 7.72544 42.4495 7.91001 42.7261 8.24522C43.0071 8.58624 43.1194 9.0358 43.0347 9.47323L39.1627 28.8339C39.0125 29.5257 38.426 30.0087 37.7361 30.0087H16.2003L7.30886 3.23925C6.82828 1.8664 5.52715 0.944078 4.03705 0.944078H4.03556C2.77169 0.987671 1.48998 0.987232 1.17604 0.965874C0.86359 0.898023 0.525915 0.98521 0.283776 1.22744C-0.0945921 1.6058 -0.0945921 2.21902 0.283776 2.59738C0.583659 2.89727 0.684908 2.99852 4.06904 2.88127C4.70361 2.88127 5.27086 3.2824 5.47485 3.86459L14.5819 31.2831C14.7136 31.6788 15.0837 31.9462 15.5013 31.9462H37.736C39.3453 31.9462 40.7103 30.8354 41.0596 29.2296L44.9364 9.84756C45.1321 8.83427 44.872 7.80103 44.2215 7.01238Z" fill="#3E3B3B"/>
<path d="M37.3001 37.2752H19.6673C19.071 37.2752 18.5105 36.8644 18.3085 36.2879L16.4193 30.6687C16.2488 30.1614 15.698 29.8877 15.1923 30.0592C14.6851 30.2293 14.4123 30.779 14.5828 31.2863L16.4759 36.9166C16.9569 38.2899 18.2392 39.2122 19.6672 39.2122H37.3C37.8348 39.2122 38.2688 38.7787 38.2688 38.2438C38.2688 37.709 37.8349 37.2752 37.3001 37.2752Z" fill="#3E3B3B"/>
<path d="M20.3454 37.2747C18.4755 37.2747 16.9545 38.7962 16.9545 40.6656C16.9545 42.5349 18.4755 44.0565 20.3454 44.0565C22.2152 44.0565 23.7363 42.5349 23.7363 40.6656C23.7363 38.7962 22.2152 37.2747 20.3454 37.2747ZM20.3454 42.1188C19.5442 42.1188 18.8921 41.4668 18.8921 40.6656C18.8921 39.8644 19.5442 39.2123 20.3454 39.2123C21.1466 39.2123 21.7986 39.8644 21.7986 40.6656C21.7986 41.4669 21.1466 42.1188 20.3454 42.1188Z" fill="#3E3B3B"/>
<path d="M37.3 37.2747C35.4306 37.2747 33.9091 38.7962 33.9091 40.6656C33.9091 42.5349 35.4306 44.0565 37.3 44.0565C39.1693 44.0565 40.6909 42.5349 40.6909 40.6656C40.6909 38.7962 39.1693 37.2747 37.3 37.2747ZM37.3 42.1188C36.4987 42.1188 35.8467 41.4668 35.8467 40.6656C35.8467 39.8644 36.4987 39.2123 37.3 39.2123C38.1012 39.2123 38.7532 39.8644 38.7532 40.6656C38.7532 41.4669 38.1012 42.1188 37.3 42.1188Z" fill="#3E3B3B"/>
<g clip-path="url(#clip1_1_1193)">
<path d="M37.985 12.3659C37.985 12.0887 37.8175 11.8388 37.5611 11.7334L27.9026 7.76564C27.7361 7.69726 27.5494 7.69726 27.3829 7.76564L17.7245 11.7334C17.468 11.8388 17.3005 12.0887 17.3005 12.3659V24.9199C17.3005 25.1972 17.468 25.447 17.7245 25.5524L27.3829 29.5202C27.5476 29.5879 27.7328 29.5893 27.9018 29.5202C27.91 29.5174 27.5444 29.6674 37.5611 25.5524C37.8176 25.4471 37.985 25.1972 37.985 24.9199V12.3659ZM27.6428 15.6519L24.084 14.19L31.7749 10.835L35.5717 12.3947L27.6428 15.6519ZM18.6682 13.4436L21.7386 14.705V18.2636C21.7386 18.6412 22.0447 18.9474 22.4224 18.9474C22.8 18.9474 23.1062 18.6412 23.1062 18.2636V15.2668L26.959 16.8496V27.8675L18.6682 24.4615V13.4436ZM27.6428 9.13742L30.0133 10.1113L22.3225 13.4663L19.7139 12.3947L27.6428 9.13742ZM28.3266 16.8496L36.6174 13.4436V24.4615L28.3266 27.8675V16.8496Z" fill="#3E3B3B"/>
</g>
</g>
<defs>
<clipPath id="clip0_1_1193">
<rect width="45" height="45" fill="white"/>
</clipPath>
<clipPath id="clip1_1_1193">
<rect width="21.8571" height="21.8571" fill="white" transform="translate(16.7143 7.71436)"/>
</clipPath>
</defs>
</svg>
