<svg width="60" height="43" viewBox="0 0 60 43" fill="none" xmlns="http://www.w3.org/2000/svg">
<path d="M57.3063 41.217L2.27096 40.9825C1.30569 40.9644 0.524574 40.2114 0.542634 39.2461L0.716841 2.61299C0.734902 1.64772 1.48792 0.866602 2.4532 0.884663L57.4886 1.11918C58.4539 1.13724 59.235 1.89026 59.2169 2.85553L59.0427 39.4887C59.0257 40.3971 58.2727 41.1783 57.3063 41.217Z" fill="#D88725"/>
<path d="M32.1746 18.3093L58.3889 37.9984C58.8935 38.3486 59.0511 39.0332 58.8134 39.5967C58.3978 40.5545 57.4198 41.2179 56.341 41.1977L3.18042 40.9414C2.10158 40.9212 1.148 40.2786 0.711813 39.3048C0.495314 38.7328 0.677342 38.1114 1.13902 37.7224L27.5175 18.2789C28.9561 17.2835 30.8309 17.2617 32.1746 18.3093Z" fill="url(#paint0_linear_1_1679)"/>
<path d="M27.5292 23.7323L1.31599 3.98646C0.811334 3.63622 0.653741 2.95166 0.891488 2.3881C1.30701 1.43027 2.28503 0.766958 3.36387 0.787143L56.5244 1.04338C57.6033 1.06357 58.5568 1.70621 58.993 2.67998C59.2095 3.25204 59.0275 3.87344 58.5658 4.26241L32.1863 23.7626C30.8044 24.7592 28.8739 24.7231 27.5292 23.7323Z" fill="url(#paint1_linear_1_1679)"/>
<path opacity="0.36" d="M58.5668 4.20545L49.1273 10.8449L32.1937 23.365C30.8118 24.3616 28.937 24.3833 27.5366 23.3347L14.8216 13.7815L1.31591 3.98628C1.20342 3.92738 1.09198 3.81169 1.03732 3.69707L1.03626 3.75385C1.09092 3.86847 1.20235 3.98416 1.31485 4.04306L27.5291 23.7321C28.9295 24.7807 30.8044 24.759 32.1862 23.7625L58.5668 4.20545C58.6814 4.15079 58.7971 4.03936 58.9139 3.87114C58.7971 4.03936 58.6814 4.15079 58.5668 4.20545Z" fill="white"/>
<defs>
<linearGradient id="paint0_linear_1_1679" x1="29.7527" y1="40.8228" x2="30.06" y2="13.1888" gradientUnits="userSpaceOnUse">
<stop offset="0.0531487" stop-color="#D88725"/>
<stop offset="1" stop-color="#FFBE2E"/>
</linearGradient>
<linearGradient id="paint1_linear_1_1679" x1="29.9427" y1="1.12094" x2="29.8535" y2="31.2628" gradientUnits="userSpaceOnUse">
<stop stop-color="#D88725"/>
<stop offset="1" stop-color="#FFBE2E"/>
</linearGradient>
</defs>
</svg>
