<svg width="83" height="48" viewBox="0 0 83 48" fill="none" xmlns="http://www.w3.org/2000/svg">
<path d="M76.2528 31.3649H58.2753L51.8781 20.0186L6.28064 18.2537L23.7678 47.1236L46.0413 47.943C48.2826 48.0376 50.5006 48.006 52.742 47.9115L70.0424 47.1236L78.6809 38.1726L78.8444 37.7629L76.2528 31.3649Z" fill="#F29E4C"/>
<path d="M21.8533 38.0457L23.7912 47.1227L16.4601 36.2808L21.8533 38.0457Z" fill="#DEA24E"/>
<path d="M23.7912 47.1232L29.1845 37.0376L21.8534 38.0462L23.7912 47.1232Z" fill="#A85F16"/>
<path d="M70.0653 47.1236L72.1899 37.1326L78.7038 38.1726L70.0653 47.1236Z" fill="#A85F16"/>
<path d="M62.011 8.57818L78.7044 38.173L82.8369 38.3936L83.0003 37.9839L66.1435 8.7988L62.1744 8.16846L62.011 8.57818Z" fill="#BF8B43"/>
<path d="M62.1744 8.16846L78.8678 37.7632L83.0003 37.9839L66.3069 8.35756L62.1744 8.16846Z" fill="#F29E4C"/>
<path d="M22.0168 37.6357L21.8534 38.0454L29.1845 37.0368L72.1904 37.1314L78.7043 38.1715L78.8677 37.7617L76.2528 31.3637L35.2781 25.1233L22.0168 37.6357Z" fill="#BF8B43"/>
<path d="M0 8.45147L16.6934 38.0778L21.8532 38.0463L22.0166 37.6365L5.15978 8.45147L0.163432 8.04175L0 8.45147Z" fill="#BF8B43"/>
<path d="M0.163452 8.04175L16.8568 37.6366H22.0166L5.32323 8.04175H0.163452Z" fill="#F29E4C"/>
<path d="M12.9581 1.23401L29.955 31.3646L44.5939 30.3245C50.1272 29.9463 55.6839 29.9148 61.2172 30.3245L76.2296 31.3646L59.2327 1.23401C59.2327 1.23401 45.5278 -0.0897176 37.9632 0.00483441C29.6282 0.0993864 12.9581 1.23401 12.9581 1.23401Z" fill="#F9B687"/>
<path d="M5.32312 8.04212L12.9577 1.23438L29.978 31.365L22.0165 37.6369L5.32312 8.04212Z" fill="#A85F16"/>
</svg>
