<svg width="59" height="51" viewBox="0 0 59 51" fill="none" xmlns="http://www.w3.org/2000/svg">
<path d="M0.323242 4.86157V37.9705L30.8604 50.7131V12.2675L0.323242 4.86157Z" fill="#A85F16"/>
<path d="M58.413 4.86157L30.8604 12.2675V50.7131L58.413 39.5497V4.86157Z" fill="#F29E4C"/>
<path d="M0.323242 4.86159L29.3682 0.39624L58.4131 4.86159L30.8604 12.2675L0.323242 4.86159Z" fill="#F7A866"/>
<path d="M43.5975 13.4657V11.832L41.8921 12.3766V14.0102C41.8921 14.5003 42.1586 15.0449 42.6382 14.9904V17.1687L41.8921 17.4954V17.7677L43.5442 17.2231V16.9508L42.7981 17.0598H42.7448V14.8815C43.2777 14.7182 43.5975 14.0647 43.5975 13.4657Z" fill="#261911"/>
<path d="M37.2554 19.2925L40.2931 18.3123V17.9312L37.2554 18.9114V19.2925Z" fill="#261911"/>
<path d="M37.7885 18.6391L38.055 18.5301V14.5549L38.3214 14.446L37.8951 13.6292L37.4688 14.7183L37.7885 14.6093V18.6391Z" fill="#261911"/>
<path d="M39.4938 18.0399L39.7602 17.9855V13.9558L40.08 13.9013L39.6536 13.0845L39.2273 14.1736L39.4938 14.0647V18.0399Z" fill="#261911"/>
<path d="M35.1771 15.4261C35.0172 15.3716 34.804 15.3716 34.5908 15.3716C34.5375 15.3716 34.4842 15.3716 34.4309 15.4261V15.1538L34.2711 15.2083V15.4805C34.0579 15.5895 33.8447 15.6984 33.6315 15.8617C33.0453 16.3518 32.619 17.2231 32.5657 18.0944C32.5657 18.0399 32.5657 17.9855 32.619 17.9855C32.6723 17.8766 32.7788 17.7677 32.8854 17.7132C32.992 17.7132 33.0986 17.7677 33.1519 17.8766C33.1519 17.931 33.1519 17.931 33.1519 17.9855C33.1519 17.931 33.1519 17.8766 33.1519 17.8221C33.2052 17.6588 33.3118 17.5498 33.4717 17.4954C33.5782 17.4954 33.6848 17.4954 33.7381 17.6588C33.7381 17.7132 33.7381 17.7132 33.7381 17.7677C33.7381 17.7132 33.7381 17.6588 33.7381 17.6043C33.7914 17.4954 33.8447 17.4409 33.898 17.3865C34.0046 17.2776 34.1645 17.2776 34.2178 17.3865V19.837C34.2178 20.0003 34.1112 20.1093 34.0046 20.1637C33.898 20.2182 33.7381 20.2182 33.7381 20.0003L33.5783 20.0548C33.5783 20.1093 33.5783 20.1637 33.5783 20.2182C33.6848 20.5449 33.9513 20.3815 34.0046 20.3815C34.1645 20.3271 34.3244 20.0548 34.3244 19.837V17.3865C34.3777 17.2776 34.4842 17.2231 34.5908 17.1687C34.6441 17.1687 34.7507 17.1687 34.804 17.2231C34.8573 17.2776 34.8573 17.332 34.8573 17.4409C34.8573 17.332 34.9106 17.2231 34.9639 17.1687C35.0172 17.0598 35.1238 17.0053 35.1771 17.0053C35.2303 17.0053 35.3369 17.0053 35.3902 17.0598C35.4435 17.1142 35.4435 17.1687 35.4435 17.2776C35.4435 17.1687 35.4968 17.0598 35.5501 17.0053C35.6034 16.8964 35.6567 16.8419 35.7633 16.8419C35.8699 16.7875 35.9765 16.8419 36.0297 16.9508C36.0297 17.0053 36.0297 17.0053 36.083 17.0598C36.1363 16.2974 35.8166 15.6439 35.1771 15.4261Z" fill="#261911"/>
<path d="M34.9639 14.8815C34.9639 14.9359 35.0705 14.9359 35.0705 14.8815C35.1237 14.827 35.1237 14.7726 35.177 14.7181C35.2303 14.5547 35.2303 14.3914 35.2836 14.2825C35.2303 14.3914 35.0705 14.6637 35.0172 14.7726C34.9639 14.7726 34.9639 14.827 34.9639 14.8815Z" fill="#261911"/>
<path d="M35.6034 15.3173C35.71 15.3173 35.71 15.2084 35.7633 15.0995C35.8166 14.9361 35.8166 14.7727 35.8699 14.6638C35.8166 14.7727 35.6567 15.045 35.6034 15.1539C35.4968 15.2084 35.4968 15.3173 35.6034 15.3173Z" fill="#261911"/>
<path d="M36.0832 15.2084C36.0299 15.3717 36.2431 15.4262 36.2964 15.2084C36.3496 15.0995 36.3496 14.8272 36.4029 14.6638C36.2964 14.8272 36.0832 15.1539 36.0832 15.2084Z" fill="#261911"/>
<path d="M35.9764 13.9015C36.0296 13.7381 36.0829 13.4658 36.0829 13.4114C35.8165 13.9015 35.8165 13.9015 35.7632 13.9559C35.7632 14.0104 35.7632 14.0648 35.8165 14.0648C35.9231 14.0648 35.9231 13.9559 35.9764 13.9015Z" fill="#261911"/>
<path d="M34.4842 14.6637C34.4842 14.7182 34.5908 14.7182 34.5908 14.6637C34.6441 14.6093 34.6441 14.5548 34.6974 14.5004C34.7507 14.337 34.7507 14.1736 34.804 14.0103C34.7507 14.1192 34.5908 14.3914 34.5375 14.5004C34.4309 14.5548 34.4309 14.6093 34.4842 14.6637C34.4842 14.6637 34.4309 14.6637 34.4842 14.6637Z" fill="#261911"/>
<path d="M0.323242 5.35143L30.8604 12.594V12.2673L0.323242 4.86133V5.35143Z" fill="#5B2C11"/>
<path d="M40.6664 2.13867H40.4533L13.8599 8.12877L14.1796 8.23768L40.6664 2.13867Z" fill="#5B2C11"/>
<path d="M15.6184 12.5942V21.7428L28.8352 25.4457V15.2626L15.6184 12.5942Z" fill="#E2B074"/>
<path d="M27.6096 16.1341L16.418 13.8469V14.4459L27.6096 16.7331V16.1341Z" fill="#9B6F40"/>
<path d="M24.3054 16.6784L16.418 14.9902V15.6437L24.3054 17.2774V16.6784Z" fill="#9B6F40"/>
<path d="M24.4653 18.0941L16.4713 16.2971L16.418 16.9506L24.4653 18.7476V18.0941Z" fill="#9B6F40"/>
<path d="M23.6658 23.4854L23.9855 23.5943L24.0388 20.218L23.6658 20.1091V23.4854Z" fill="#1C3350"/>
<path d="M23.2927 23.3762L23.5592 23.4307V20.0545L23.2927 20V23.3762Z" fill="#1C3350"/>
<path d="M22.9197 23.2676L23.1861 23.3221V19.9458L22.973 19.8914L22.9197 23.2676Z" fill="#1C3350"/>
<path d="M20.4148 22.5052L20.6813 22.5596V19.1834L20.4681 19.0745L20.4148 22.5052Z" fill="#1C3350"/>
<path d="M22.3333 23.104L22.8129 23.2129V19.8367L22.3865 19.6733L22.3333 23.104Z" fill="#1C3350"/>
<path d="M21.8003 22.9407L22.2799 23.0496V19.6734L21.8536 19.51L21.8003 22.9407Z" fill="#1C3350"/>
<path d="M21.2676 22.7774L21.7472 22.8863V19.51L21.3209 19.3467L21.2676 22.7774Z" fill="#1C3350"/>
<path d="M20.7346 22.6143L21.2143 22.7232V19.347L20.7879 19.1836L20.7346 22.6143Z" fill="#1C3350"/>
<path d="M27.6626 24.6834L27.9824 24.7923V21.416L27.6626 21.3071V24.6834Z" fill="#1C3350"/>
<path d="M27.2898 24.5745L27.503 24.6834L27.5563 21.2527L27.2898 21.1982V24.5745Z" fill="#1C3350"/>
<path d="M28.0891 21.4707V24.8469L28.3556 24.9014V21.5252L28.0891 21.4707Z" fill="#1C3350"/>
<path d="M26.9165 24.4656L27.1297 24.5745L27.183 21.1438L26.9165 21.0894V24.4656Z" fill="#1C3350"/>
<path d="M24.4119 23.7031L24.625 23.812L24.6783 20.3814L24.4119 20.3269V23.7031Z" fill="#1C3350"/>
<path d="M24.1453 23.6487L24.3051 23.7032L24.3584 20.2725L24.1986 20.218L24.1453 23.6487Z" fill="#1C3350"/>
<path d="M26.3303 24.3023L26.7567 24.4656L26.81 21.0349L26.3303 20.926V24.3023Z" fill="#1C3350"/>
<path d="M25.7974 24.1387L26.2237 24.3021L26.277 20.8714L25.7974 20.7625V24.1387Z" fill="#1C3350"/>
<path d="M25.2644 23.9754L25.6907 24.1387L25.744 20.708L25.2644 20.5991V23.9754Z" fill="#1C3350"/>
<path d="M24.7314 23.812L25.1578 23.9754L25.2111 20.5447L24.7314 20.4358V23.812Z" fill="#1C3350"/>
</svg>
