<svg width="35" height="35" viewBox="0 0 35 35" fill="none" xmlns="http://www.w3.org/2000/svg">
<path d="M34.7864 33.7553L24.1369 23.1058C26.3489 20.6499 27.7084 17.4117 27.7084 13.8541C27.7083 6.21503 21.4934 0 13.8542 0C6.21503 0 0 6.21503 0 13.8542C0 21.4934 6.21503 27.7084 13.8542 27.7084C17.4118 27.7084 20.6499 26.3489 23.1059 24.1369L33.7553 34.7864C33.8977 34.9288 34.0843 35 34.2709 35C34.4574 35 34.644 34.9288 34.7864 34.7864C35.0712 34.5015 35.0712 34.0401 34.7864 33.7553ZM13.8542 26.25C7.01969 26.25 1.45838 20.6894 1.45838 13.8542C1.45838 7.019 7.01969 1.45831 13.8542 1.45831C20.6887 1.45831 26.25 7.01894 26.25 13.8542C26.25 20.6894 20.6887 26.25 13.8542 26.25Z" fill="#3E3B3B"/>
</svg>
