<svg width="290" height="228" viewBox="0 0 290 228" fill="none" xmlns="http://www.w3.org/2000/svg">
<path d="M85.8461 106.701C83.982 105.599 82.1414 104.178 80.5058 102.611C79.9606 102.089 78.935 102.818 79.4802 103.341C81.6609 105.43 84.7915 110.485 88.7069 110.127C89.4806 110.183 89.5509 109.223 89.1874 108.875C88.2788 108.004 86.9599 107.425 85.8461 106.701Z" fill="black"/>
<path d="M104.413 104.917C101.447 107.643 99.0825 110.25 94.4785 111.058C93.8769 111.178 94.0378 111.68 94.6394 111.56C99.7973 111.283 104.264 109.647 106.146 105.534C106.61 104.587 104.853 104.296 104.413 104.917Z" fill="black"/>
<path d="M111.073 84.169C108.629 88.0492 108.227 93.5392 108.103 97.9132C108.239 98.7348 109.411 98.8202 109.666 98.0271C110.038 95.6192 110.618 93.0642 111.381 90.6848C111.914 88.7756 112.837 86.8949 112.979 84.9573C112.866 83.8127 111.511 83.5516 111.073 84.169Z" fill="black"/>
<path d="M123.095 64.4812C119.16 66.9716 116.702 70.8765 114.475 74.3083C114.035 74.9296 114.982 75.4888 115.607 75.0443C118.226 71.6411 121.399 68.7685 124.756 66.0727C125.613 65.155 124.137 63.7404 123.095 64.4812Z" fill="black"/>
<path d="M143.127 60.2077C140.995 59.8904 138.451 59.8669 136.296 59.8717C134.53 59.905 134.389 61.8378 136.131 62.1267C138.079 62.2684 140.211 62.5859 142.342 62.9032C144.474 63.2202 147.154 64.0636 149.516 63.9118C150.502 63.8218 150.779 62.7085 149.84 62.1543C148.376 60.7522 145.465 60.3781 143.127 60.2077Z" fill="black"/>
<path d="M156.81 66.7223C156.083 66.0255 154.647 67.047 155.374 67.7438C156.987 69.6317 158.213 71.4913 159.62 73.5254C160.846 75.385 161.457 77.6826 163.275 79.4245C164.184 80.2954 165.984 79.6221 165.486 78.459C164.242 74.184 160.288 69.7118 156.81 66.7223Z" fill="black"/>
<path d="M182.969 86.8927C180.795 87.2192 179.011 87.5738 176.884 87.2573C174.392 86.5909 171.788 84.7853 170.145 83.2114C169.596 82.6864 168.566 83.4192 169.114 83.9441C172.172 87.56 179.023 92.7448 184.2 88.76C184.842 87.999 184.159 86.6565 182.969 86.8927Z" fill="black"/>
<path d="M192.754 86.4515C195.724 85.919 198.429 84.7185 201.311 83.9633C205.067 83.2242 208.828 83.2227 212.42 84.2489C213.033 84.3338 213.028 83.5971 212.678 83.4435C205.756 81.3224 196.916 80.1962 191.08 84.4311C190.037 85.4424 191.444 86.7948 192.754 86.4515Z" fill="black"/>
<path d="M239.393 83.3351C237.164 83.3464 234.922 83.8638 232.319 83.9613C230.09 83.9726 227.874 83.4774 225.788 82.7851C224.436 82.4262 223.532 83.8087 224.756 84.3651C229.031 86.5651 235.432 87.9388 240.073 85.6938C241.698 85.1515 240.875 83.496 239.393 83.3351Z" fill="black"/>
<path d="M264.038 79.6774C262.311 79.0632 259.914 79.5395 258.116 79.8968C256.11 80.4017 254.265 81.4069 252.603 82.5881C251.565 83.3263 252.852 84.5593 253.891 83.8211C255.345 82.7876 256.959 82.2545 258.757 81.8972C260.348 81.6873 262.099 81.9777 263.688 81.768C265.071 81.7058 265.189 80.0871 264.038 79.6774Z" fill="black"/>
<path d="M287.049 77.5722C279.952 75.599 273.34 72.3668 266.473 69.925C263.223 68.8793 261.749 72.978 264.793 74.1705C270.308 76.3518 275.8 78.8555 281.752 80.4217C280.077 81.9174 278.402 83.4131 276.521 85.0555C275.878 85.8175 274.433 86.8446 274.545 87.9855L274.522 88.3068C274.522 88.3068 274.315 88.4536 274.498 88.6287C274.451 89.2724 275.596 89.6793 276.008 89.3859C276.398 89.4142 276.605 89.2673 277.017 88.974C278.232 88.415 279.081 87.5067 280.32 86.6263C282.821 84.5437 285.115 82.6076 287.981 80.8755C289.403 80.1704 288.765 78.1827 287.049 77.5722Z" fill="black"/>
<path d="M75.3073 103.03C73.1663 103.286 70.8863 103.736 68.8472 104.305C66.8081 104.875 64.25 105.714 63.2765 107.076C62.7203 107.854 63.6469 108.84 64.546 108.496C66.446 108.121 67.7994 106.684 69.5976 105.995C71.5348 105.112 73.4348 104.737 75.7148 104.287C76.6139 103.942 76.0673 102.88 75.3073 103.03Z" fill="black"/>
<path d="M56.6884 125.454C54.3621 128.577 52.6011 131.494 48.2521 132.968C47.6868 133.175 47.9531 133.646 48.5183 133.44C53.526 132.407 57.562 130.138 58.5242 125.807C58.7765 124.806 56.9873 124.777 56.6884 125.454Z" fill="black"/>
<path d="M39.2193 135.146C37.0631 135.721 34.6099 136.07 32.1348 136.182C31.3098 136.219 31.4194 137.409 32.2444 137.372C35.5445 137.223 42.2763 138.354 44.2133 135.398C44.7195 134.898 43.8287 134.221 43.2787 134.246C41.9037 134.308 40.5725 134.846 39.2193 135.146Z" fill="black"/>
<path d="M59.2892 121.095C58.8625 117.427 58.128 114.199 60.5817 110.895C60.8896 110.454 60.3211 110.199 60.0132 110.64C56.6925 113.903 55.0868 117.703 57.5269 121.696C58.0671 122.634 59.5498 121.792 59.2892 121.095Z" fill="black"/>
<path d="M25.306 138.642C23.165 138.898 20.885 139.348 18.8459 139.917C16.8068 140.487 14.2486 141.326 13.2752 142.688C12.719 143.466 13.6455 144.453 14.5446 144.108C16.4446 143.733 17.7981 142.296 19.5962 141.607C21.5334 140.724 23.4335 140.349 25.7135 139.899C26.6126 139.554 26.066 138.492 25.306 138.642Z" fill="black"/>
<path d="M8.89524 146.538C7.84462 147.923 5.95061 148.85 5.26478 150.358C4.6023 151.352 5.28516 152.625 6.63049 152.905C7.86202 152.972 8.88928 152.101 9.77938 151.532C10.4185 151.052 10.4419 150.538 10.1004 149.901C10.6257 149.208 11.1511 148.516 11.3116 147.701C11.8602 146.494 9.69488 145.243 8.89524 146.538Z" fill="black"/>
</svg>
