<svg width="281" height="117" viewBox="0 0 281 117" fill="none" xmlns="http://www.w3.org/2000/svg">
<path d="M98.7364 22.7654C98.0598 20.9556 97.6318 18.9063 97.4704 16.8465C97.4165 16.1599 96.084 16.2127 96.1378 16.8993C96.3531 19.6457 95.1847 25.2019 98.5264 26.9062C99.0953 27.3428 99.841 26.6246 99.8051 26.1668C99.7154 25.0225 99.0926 23.8992 98.7364 22.7654Z" fill="black"/>
<path d="M114.776 30.7333C110.408 31.3774 106.609 32.235 102.331 30.5159C101.762 30.3024 101.524 30.7837 102.093 30.9972C106.427 33.4221 111.2 34.4138 115.713 32.1122C116.778 31.5983 115.584 30.4655 114.776 30.7333Z" fill="black"/>
<path d="M135.317 17.6714C130.52 19.4791 126.18 23.5846 122.88 26.9549C122.388 27.6688 123.264 28.3294 124.049 27.8357C126.109 26.1346 128.444 24.4228 130.796 22.9418C132.62 21.713 134.736 20.7044 136.267 19.2554C137.015 18.3001 136.12 17.4086 135.317 17.6714Z" fill="black"/>
<path d="M159.398 8.09636C154.425 8.05656 149.601 9.89379 145.308 11.4748C144.501 11.7419 144.85 12.6696 145.676 12.6371C150.263 11.2799 154.904 10.6267 159.565 10.208C160.923 9.91929 160.774 8.04224 159.398 8.09636Z" fill="black"/>
<path d="M178.423 14.7911C176.95 13.4636 174.931 12.1573 173.203 11.0704C171.766 10.2031 170.24 11.6474 171.422 12.7555C172.878 13.8529 174.351 15.1805 175.825 16.508C177.299 17.8355 178.827 19.8534 180.828 20.9296C181.683 21.358 182.718 20.6252 182.372 19.7154C182.225 17.8746 180.17 16.1081 178.423 14.7911Z" fill="black"/>
<path d="M184.376 26.8738C184.304 25.9581 182.433 26.032 182.505 26.9477C182.418 29.2476 182.045 31.329 181.69 33.6394C181.318 35.7209 180.143 37.834 180.323 40.1233C180.413 41.2679 182.32 41.6518 182.765 40.4861C184.865 36.4993 184.967 30.984 184.376 26.8738Z" fill="black"/>
<path d="M190.376 56.0111C188.402 55.1672 186.719 54.542 185.252 53.2174C183.749 51.4336 182.987 48.6997 182.822 46.6334C182.767 45.9443 181.41 45.9972 181.465 46.6864C181.27 51.0698 182.958 58.6036 189.997 58.0989C191.065 57.827 191.498 56.4283 190.376 56.0111Z" fill="black"/>
<path d="M198.309 60.5681C201.096 61.6374 204.153 62.0711 207.029 62.9284C210.601 64.2314 213.641 66.0932 215.799 68.647C216.232 69.0146 216.763 68.4563 216.591 68.1667C212.538 63.1371 206.212 57.9079 198.423 58.214C196.846 58.4606 197.002 60.1784 198.309 60.5681Z" fill="black"/>
<path d="M237.741 81.6111C235.947 80.5016 233.768 79.7832 231.611 78.554C229.818 77.4445 228.409 75.9435 227.25 74.3527C226.432 73.3918 224.686 74.0251 225.254 75.0765C227.051 78.9506 231.163 83.2424 236.541 83.8063C238.243 84.1951 238.809 82.481 237.741 81.6111Z" fill="black"/>
<path d="M259.951 91.1751C259.016 89.8152 256.746 88.9728 255.044 88.341C253.067 87.7199 250.853 87.5739 248.657 87.6596C247.284 87.7131 247.414 89.3367 248.786 89.2832C250.708 89.2083 252.391 89.6085 254.094 90.2402C255.522 90.8827 256.713 91.9999 258.14 92.642C259.293 93.2949 260.573 92.0817 259.951 91.1751Z" fill="black"/>
<path d="M279.8 101.09C275.568 95.9513 272.641 90.0704 268.935 84.681C267.1 82.2162 262.928 84.6845 264.491 87.1599C267.307 91.6613 269.87 96.4039 273.484 100.644C271.053 100.969 268.621 101.295 265.918 101.63C264.847 101.903 262.942 101.977 262.198 102.929L261.945 103.169C261.945 103.169 261.673 103.179 261.691 103.409C261.183 103.89 261.801 104.788 262.345 104.767C262.636 104.986 262.909 104.976 263.453 104.955C264.832 105.131 266.175 104.848 267.808 104.785C271.328 104.417 274.576 104.06 278.134 104.152C279.785 104.318 280.727 102.437 279.8 101.09Z" fill="black"/>
<path d="M93.1414 14.55C91.2377 13.677 89.0789 12.8867 87.0248 12.311C84.9707 11.7353 82.3017 11.1108 80.5162 11.6906C79.4959 12.0219 79.5094 13.2603 80.4841 13.4409C82.2831 14.0994 84.4284 13.6513 86.3778 14.0125C88.5822 14.2908 90.3812 14.9493 92.5401 15.7395C93.5147 15.9201 93.8611 14.8135 93.1414 14.55Z" fill="black"/>
<path d="M61.8038 22.9607C57.6474 24.2452 54.0949 25.6527 49.5328 24.6169C48.9291 24.4939 48.7956 24.9995 49.3994 25.1225C54.1636 26.8389 59.0598 27.0904 63.0127 24.166C63.9507 23.5046 62.541 22.5781 61.8038 22.9607Z" fill="black"/>
<path d="M40.7921 21.8499C38.6451 21.201 36.4178 20.237 34.3411 19.0858C33.6489 18.702 32.896 19.6383 33.5883 20.0221C36.3572 21.5571 40.9916 25.7507 44.6444 24.5269C45.407 24.4082 45.1665 23.4627 44.705 23.2068C43.5513 22.5673 42.0964 22.3022 40.7921 21.8499Z" fill="black"/>
<path d="M67.0071 20.7303C69.419 17.6471 71.2607 14.7618 75.6449 13.3526C76.2151 13.1547 75.9627 12.6808 75.3925 12.8787C70.3633 13.8379 66.2688 16.045 65.1843 20.3521C64.9038 21.3479 66.6893 21.4021 67.0071 20.7303Z" fill="black"/>
<path d="M27.2426 17.581C25.3389 16.708 23.1801 15.9178 21.1259 15.3421C19.0718 14.7664 16.4029 14.1419 14.6173 14.7217C13.597 15.053 13.6105 16.2914 14.5852 16.4719C16.3843 17.1304 18.5296 16.6823 20.479 17.0434C22.6834 17.3218 24.4824 17.9803 26.6413 18.7705C27.6159 18.951 27.9622 17.8444 27.2426 17.581Z" fill="black"/>
<path d="M8.37678 15.6342C6.49681 16.1724 4.26729 15.9373 2.59407 16.7521C1.31944 17.1842 0.935747 18.5032 1.82669 19.3902C2.78157 20.0573 4.26295 19.9019 5.40969 19.9095C6.28572 19.8603 6.68431 19.4775 6.87616 18.818C7.81615 18.5489 8.75613 18.2798 9.48937 17.7341C10.8279 17.0822 9.98606 15.0392 8.37678 15.6342Z" fill="black"/>
</svg>
