<svg width="29" height="33" viewBox="0 0 29 33" fill="none" xmlns="http://www.w3.org/2000/svg">
<path d="M0.926275 29.5581C1.1912 29.6948 7.49565 32.9061 14.5 32.9061C22.0885 32.9061 27.8527 29.6841 28.0943 29.5469C28.1799 29.4984 28.2508 29.4296 28.3 29.3474C28.3491 29.2653 28.375 29.1724 28.375 29.078C28.375 24.6625 26.9436 20.6219 24.3447 17.7001C22.5266 15.6562 20.2455 14.263 17.7296 13.6217C19.2696 12.9284 20.5146 11.7602 21.26 10.309C22.0053 8.85781 22.2067 7.20997 21.831 5.6362C21.4554 4.06243 20.525 2.65634 19.1927 1.64894C17.8605 0.641552 16.2056 0.0927734 14.5 0.0927734C12.7944 0.0927734 11.1395 0.641552 9.80729 1.64894C8.47504 2.65634 7.54464 4.06243 7.16896 5.6362C6.79328 7.20997 6.99466 8.85781 7.74001 10.309C8.48536 11.7602 9.73036 12.9284 11.2704 13.6217C8.75452 14.263 6.47339 15.6564 4.65533 17.7001C2.05637 20.6219 0.625 24.6625 0.625 29.078C0.625001 29.1762 0.652979 29.2727 0.705993 29.3572C0.759008 29.4416 0.835101 29.511 0.926275 29.5581ZM8.14062 7.203C8.14062 6.01322 8.5136 4.85016 9.21237 3.8609C9.91115 2.87164 10.9043 2.1006 12.0664 1.64529C13.2284 1.18998 14.5071 1.07085 15.7407 1.30297C16.9742 1.53508 18.1074 2.10801 18.9968 2.94931C19.8861 3.79061 20.4918 4.8625 20.7372 6.02941C20.9826 7.19633 20.8566 8.40587 20.3753 9.50508C19.894 10.6043 19.0789 11.5438 18.0331 12.2048C16.9873 12.8658 15.7578 13.2186 14.5 13.2186C12.814 13.2168 11.1976 12.5824 10.0054 11.4547C8.81316 10.3269 8.14254 8.79789 8.14062 7.203ZM5.54 18.4043C7.8877 15.7656 11.0694 14.3124 14.5 14.3124C17.9306 14.3124 21.1123 15.7656 23.46 18.4043C25.8217 21.0592 27.1496 24.7262 27.2161 28.759C25.979 29.3925 20.8383 31.8124 14.5 31.8124C8.63854 31.8124 3.11816 29.3782 1.78414 28.746C1.85352 24.7182 3.18082 21.0564 5.54 18.4043Z" fill="#3E3B3B"/>
</svg>
